<svg width="802" height="566" viewBox="0 0 802 566" fill="none" xmlns="http://www.w3.org/2000/svg">
<rect x="185.049" y="10.8087" width="201.227" height="546.835" fill="#F2F2F2" stroke="#D9D9D9" stroke-width="2"/>
<rect width="17.1779" height="9.8087" transform="matrix(1 0 0 -1 192.41 10.8087)" fill="#F2F2F2" stroke="#D9D9D9" stroke-width="2"/>
<rect width="17.1779" height="9.8087" transform="matrix(1 0 0 -1 361.736 10.8087)" fill="#F2F2F2" stroke="#D9D9D9" stroke-width="2"/>
<rect width="17.1779" height="9.8087" transform="matrix(1 0 0 -1 305.295 10.8087)" fill="#F2F2F2" stroke="#D9D9D9" stroke-width="2"/>
<rect width="17.1779" height="9.8087" transform="matrix(1 0 0 -1 248.852 10.8087)" fill="#F2F2F2" stroke="#D9D9D9" stroke-width="2"/>
<path d="M324.926 69.6609H398.545V118.704H324.926V69.6609Z" fill="#F2F2F2" stroke="#D9D9D9" stroke-width="2"/>
<rect x="74.6191" y="495.113" width="652.761" height="61.3043" fill="#F7F7F7" stroke="#BFBFBF" stroke-width="2"/>
<rect x="74.6191" y="495.113" width="274.847" height="61.3043" fill="#F7F7F7" stroke="#BFBFBF" stroke-width="2"/>
<rect x="550.693" y="495.113" width="176.687" height="61.3043" fill="#F7F7F7" stroke="#BFBFBF" stroke-width="2"/>
<rect x="50.0801" y="309.974" width="701.841" height="185.139" fill="#F7F7F7" stroke="#BFBFBF" stroke-width="2"/>
<rect x="50.0801" y="309.974" width="701.841" height="12.2609" fill="#F7F7F7" stroke="#BFBFBF" stroke-width="2"/>
<path fill-rule="evenodd" clip-rule="evenodd" d="M430.449 512.278H432.903H440.265H459.897H467.259H469.713V519.635H467.259V544.156H459.897V519.635H440.265V544.156H432.903V519.635H430.449V512.278Z" fill="#C9C9C9"/>
<rect x="388.73" y="518.409" width="29.4479" height="22.0696" fill="#F7F7F7" stroke="#BFBFBF" stroke-width="2"/>
<rect x="403.455" y="518.409" width="14.7239" height="22.0696" fill="#F7F7F7" stroke="#BFBFBF" stroke-width="2"/>
<rect x="481.982" y="518.409" width="29.4479" height="22.0696" fill="#F7F7F7" stroke="#BFBFBF" stroke-width="2"/>
<rect x="496.707" y="518.409" width="14.7239" height="22.0696" fill="#F7F7F7" stroke="#BFBFBF" stroke-width="2"/>
<path fill-rule="evenodd" clip-rule="evenodd" d="M685.663 354.113H116.338V360.243H50.0801V370.052H116.338V401.93H50.0801V411.739H116.338V443.617H50.0801V453.426H116.338V485.304H50.0801V495.113H116.338V501.243H685.663V495.113H751.921V485.304H685.663V453.426H751.921V443.617H685.663V411.739H751.921V401.93H685.663V370.052H751.921V360.243H685.663V354.113ZM673.393 366.374H128.608V488.983H673.393V366.374Z" fill="#F7F7F7"/>
<path d="M116.338 354.113V353.113H115.338V354.113H116.338ZM685.663 354.113H686.663V353.113H685.663V354.113ZM116.338 360.243V361.243H117.338V360.243H116.338ZM50.0801 360.243V359.243H49.0801V360.243H50.0801ZM50.0801 370.052H49.0801V371.052H50.0801V370.052ZM116.338 370.052H117.338V369.052H116.338V370.052ZM116.338 401.93V402.93H117.338V401.93H116.338ZM50.0801 401.93V400.93H49.0801V401.93H50.0801ZM50.0801 411.739H49.0801V412.739H50.0801V411.739ZM116.338 411.739H117.338V410.739H116.338V411.739ZM116.338 443.617V444.617H117.338V443.617H116.338ZM50.0801 443.617V442.617H49.0801V443.617H50.0801ZM50.0801 453.426H49.0801V454.426H50.0801V453.426ZM116.338 453.426H117.338V452.426H116.338V453.426ZM116.338 485.304V486.304H117.338V485.304H116.338ZM50.0801 485.304V484.304H49.0801V485.304H50.0801ZM50.0801 495.113H49.0801V496.113H50.0801V495.113ZM116.338 495.113H117.338V494.113H116.338V495.113ZM116.338 501.243H115.338V502.243H116.338V501.243ZM685.663 501.243V502.243H686.663V501.243H685.663ZM685.663 495.113V494.113H684.663V495.113H685.663ZM751.921 495.113V496.113H752.921V495.113H751.921ZM751.921 485.304H752.921V484.304H751.921V485.304ZM685.663 485.304H684.663V486.304H685.663V485.304ZM685.663 453.426V452.426H684.663V453.426H685.663ZM751.921 453.426V454.426H752.921V453.426H751.921ZM751.921 443.617H752.921V442.617H751.921V443.617ZM685.663 443.617H684.663V444.617H685.663V443.617ZM685.663 411.739V410.739H684.663V411.739H685.663ZM751.921 411.739V412.739H752.921V411.739H751.921ZM751.921 401.93H752.921V400.93H751.921V401.93ZM685.663 401.93H684.663V402.93H685.663V401.93ZM685.663 370.052V369.052H684.663V370.052H685.663ZM751.921 370.052V371.052H752.921V370.052H751.921ZM751.921 360.243H752.921V359.243H751.921V360.243ZM685.663 360.243H684.663V361.243H685.663V360.243ZM128.608 366.374V365.374H127.608V366.374H128.608ZM673.393 366.374H674.393V365.374H673.393V366.374ZM128.608 488.983H127.608V489.983H128.608V488.983ZM673.393 488.983V489.983H674.393V488.983H673.393ZM116.338 355.113H685.663V353.113H116.338V355.113ZM117.338 360.243V354.113H115.338V360.243H117.338ZM50.0801 361.243H116.338V359.243H50.0801V361.243ZM51.0801 370.052V360.243H49.0801V370.052H51.0801ZM116.338 369.052H50.0801V371.052H116.338V369.052ZM117.338 401.93V370.052H115.338V401.93H117.338ZM50.0801 402.93H116.338V400.93H50.0801V402.93ZM51.0801 411.739V401.93H49.0801V411.739H51.0801ZM116.338 410.739H50.0801V412.739H116.338V410.739ZM117.338 443.617V411.739H115.338V443.617H117.338ZM50.0801 444.617H116.338V442.617H50.0801V444.617ZM51.0801 453.426V443.617H49.0801V453.426H51.0801ZM116.338 452.426H50.0801V454.426H116.338V452.426ZM117.338 485.304V453.426H115.338V485.304H117.338ZM50.0801 486.304H116.338V484.304H50.0801V486.304ZM51.0801 495.113V485.304H49.0801V495.113H51.0801ZM116.338 494.113H50.0801V496.113H116.338V494.113ZM117.338 501.243V495.113H115.338V501.243H117.338ZM685.663 500.243H116.338V502.243H685.663V500.243ZM684.663 495.113V501.243H686.663V495.113H684.663ZM751.921 494.113H685.663V496.113H751.921V494.113ZM750.921 485.304V495.113H752.921V485.304H750.921ZM685.663 486.304H751.921V484.304H685.663V486.304ZM684.663 453.426V485.304H686.663V453.426H684.663ZM751.921 452.426H685.663V454.426H751.921V452.426ZM750.921 443.617V453.426H752.921V443.617H750.921ZM685.663 444.617H751.921V442.617H685.663V444.617ZM684.663 411.739V443.617H686.663V411.739H684.663ZM751.921 410.739H685.663V412.739H751.921V410.739ZM750.921 401.93V411.739H752.921V401.93H750.921ZM685.663 402.93H751.921V400.93H685.663V402.93ZM684.663 370.052V401.93H686.663V370.052H684.663ZM751.921 369.052H685.663V371.052H751.921V369.052ZM750.921 360.243V370.052H752.921V360.243H750.921ZM685.663 361.243H751.921V359.243H685.663V361.243ZM684.663 354.113V360.243H686.663V354.113H684.663ZM128.608 367.374H673.393V365.374H128.608V367.374ZM129.608 488.983V366.374H127.608V488.983H129.608ZM673.393 487.983H128.608V489.983H673.393V487.983ZM672.393 366.374V488.983H674.393V366.374H672.393Z" fill="#BFBFBF"/>
<path fill-rule="evenodd" clip-rule="evenodd" d="M444.239 418.532C440.414 425.688 430.873 432.613 424.172 437.252C422.025 442.871 419.252 449.36 415.906 455.081C415.906 455.081 468.182 426.334 511.43 426.334V432.3C468.127 432.3 407.078 468.139 407.078 468.139L401.02 462.11C407.03 458.138 410.147 451.724 413.793 444.222C413.959 443.881 414.126 443.538 414.294 443.192C411.511 444.573 408.934 445.629 406.766 446.214C402.948 447.242 399.426 446.988 396.901 445.26C395.51 444.308 390.762 438.406 389.944 436.618C389.202 435.001 388.779 432.895 388.733 430.227C388.46 414.109 409.695 379.394 434.458 373.215C440.654 371.668 447.561 372.73 450.247 375.597C451.612 377.053 452.897 378.783 454.145 380.462C454.364 380.757 454.582 381.05 454.799 381.34C456.215 383.232 457.275 388.434 454.365 393.664C452.722 393.163 452.379 391.948 452.088 390.741C452.018 390.455 451.975 390.143 451.931 389.825C451.767 388.652 451.594 387.406 450.081 387.156C451.165 385.205 451.436 384.04 451.745 382.412C452.192 380.051 451.277 378.589 448.718 378.263C446.541 377.985 441.969 378.013 436.65 379.371C412.876 385.441 393.245 420.023 393.519 436.142C393.567 438.982 393.904 441.061 397.457 441.004C398.849 440.98 400.368 440.733 401.982 440.3C406.508 439.079 412.819 435.805 419.215 431.865C420.362 428.805 421.352 425.998 422.155 423.686C422.279 423.329 422.41 422.94 422.551 422.525C423.891 418.553 426.047 412.163 430.299 408.301C432.28 406.502 437.063 403.508 439.624 405.93C441.261 407.481 444.914 412.232 445.249 413.563C445.57 414.838 445.305 416.539 444.239 418.532ZM435.069 414.153C432.074 416.871 430.119 420.844 428.759 424.348C433.575 420.294 437.544 416.097 439.438 412.555C439.934 411.629 439.735 411.204 438.468 411.807C437.383 412.323 436.234 413.096 435.069 414.153Z" fill="#BFBFBF"/>
<path fill-rule="evenodd" clip-rule="evenodd" d="M454.181 459.518C454.33 459.518 454.479 459.502 454.629 459.471C454.778 459.44 454.917 459.39 455.045 459.319C455.173 459.249 455.284 459.157 455.379 459.044C455.475 458.93 455.541 458.789 455.579 458.622L455.573 458.599H454.149V457.936H456.613C456.613 458.125 456.615 458.32 456.618 458.521C456.621 458.723 456.626 458.922 456.634 459.118C456.642 459.315 456.653 459.504 456.667 459.686C456.681 459.868 456.698 460.034 456.72 460.183H455.879C455.851 460.063 455.83 459.936 455.817 459.804C455.803 459.672 455.792 459.535 455.784 459.392C455.703 459.571 455.595 459.72 455.461 459.838C455.327 459.955 455.18 460.049 455.02 460.119C454.859 460.189 454.692 460.238 454.517 460.267C454.343 460.295 454.174 460.309 454.012 460.309C453.76 460.309 453.521 460.286 453.294 460.239C453.067 460.192 452.857 460.125 452.662 460.036C452.468 459.948 452.293 459.84 452.138 459.712C451.982 459.585 451.85 459.44 451.741 459.279C451.632 459.117 451.547 458.94 451.488 458.747C451.429 458.555 451.399 458.349 451.399 458.132C451.399 457.768 451.467 457.445 451.602 457.164C451.738 456.883 451.928 456.647 452.173 456.458C452.418 456.268 452.709 456.124 453.047 456.026C453.385 455.927 453.756 455.878 454.161 455.878C454.472 455.878 454.76 455.911 455.026 455.976C455.291 456.041 455.529 456.135 455.739 456.256C455.949 456.378 456.128 456.525 456.276 456.698C456.423 456.872 456.534 457.066 456.607 457.282L455.466 457.381C455.416 457.263 455.353 457.161 455.275 457.075C455.198 456.989 455.105 456.918 454.997 456.862C454.889 456.805 454.764 456.764 454.621 456.736C454.479 456.709 454.317 456.695 454.137 456.695C453.911 456.695 453.701 456.727 453.507 456.79C453.312 456.854 453.144 456.945 453.001 457.063C452.858 457.182 452.747 457.327 452.665 457.5C452.584 457.672 452.543 457.866 452.543 458.082C452.543 458.302 452.58 458.5 452.652 458.677C452.724 458.854 452.83 459.005 452.968 459.13C453.107 459.254 453.278 459.35 453.481 459.417C453.684 459.484 453.918 459.518 454.181 459.518ZM461.729 459.369H459.238L458.851 460.183H457.689L459.823 456.004H461.182L463.322 460.183H462.118L461.729 459.369ZM459.591 458.625H461.375L460.483 456.745L459.591 458.625ZM464.532 460.183V456.004H465.65V459.363H468.551V460.183H464.532ZM469.882 460.183V456.004H471V459.363H473.902V460.183H469.882ZM475.233 460.183V456.004H479.38V456.821H476.351V457.688H478.961V458.447H476.351V459.363H479.455V460.183H475.233ZM484.466 458.383C484.466 458.383 484.466 458.383 484.466 458.383C484.467 458.383 484.469 458.383 484.47 458.383L484.466 458.383ZM484.47 458.383C484.542 458.389 484.621 458.411 484.706 458.45C484.792 458.489 484.873 458.545 484.949 458.619C485.026 458.693 485.092 458.786 485.149 458.899C485.205 459.012 485.24 459.146 485.254 459.302L485.284 459.728C485.294 459.833 485.313 459.926 485.34 460.005C485.368 460.085 485.391 460.145 485.409 460.183H484.252C484.242 460.156 484.228 460.104 484.209 460.027C484.19 459.95 484.176 459.854 484.166 459.737L484.133 459.36C484.121 459.242 484.088 459.14 484.032 459.055C483.977 458.971 483.906 458.901 483.82 458.847C483.733 458.792 483.636 458.753 483.527 458.728C483.418 458.704 483.304 458.692 483.185 458.692H482.008V460.183H480.908V456.004H483.604C483.759 456.004 483.91 456.013 484.059 456.031C484.208 456.05 484.348 456.08 484.48 456.12C484.611 456.161 484.733 456.215 484.844 456.282C484.955 456.35 485.051 456.431 485.132 456.528C485.213 456.624 485.276 456.737 485.321 456.866C485.366 456.996 485.388 457.144 485.388 457.311C485.388 457.463 485.366 457.597 485.322 457.713C485.279 457.828 485.217 457.929 485.137 458.013C485.056 458.098 484.959 458.17 484.845 458.231C484.731 458.291 484.605 458.342 484.466 458.383L484.47 458.383ZM483.417 457.907C483.532 457.907 483.638 457.898 483.736 457.882C483.834 457.865 483.919 457.836 483.989 457.793C484.059 457.75 484.114 457.691 484.154 457.615C484.194 457.539 484.214 457.442 484.214 457.323C484.214 457.212 484.193 457.123 484.151 457.054C484.109 456.986 484.054 456.934 483.983 456.897C483.913 456.86 483.832 456.835 483.739 456.822C483.647 456.81 483.551 456.803 483.45 456.803H482.008V457.907H483.417ZM486.85 460.183V456.004H487.968V460.183H486.85ZM493.223 459.369H490.732L490.345 460.183H489.183L491.318 456.004H492.676L494.817 460.183H493.613L493.223 459.369ZM491.086 458.625H492.869L491.978 456.745L491.086 458.625ZM503.684 460.183V457.609L503.707 457.04L503.475 457.6L502.185 460.183H501.207L499.926 457.609L499.685 457.028L499.712 457.606V460.183H498.755V456.004H500.196L501.513 458.739L501.739 459.427L501.968 458.739L503.285 456.004H504.724V460.183H503.684ZM506.43 460.183V456.004H507.548V460.183H506.43ZM512.964 460.183L510.505 457.571L510.235 457.3L510.255 457.662V460.183H509.254V456.004H510.395L512.83 458.616L513.098 458.887L513.077 458.526V456.004H514.079V460.183H512.964ZM518.757 459.013C518.757 458.939 518.738 458.876 518.699 458.823C518.661 458.771 518.603 458.726 518.525 458.688C518.448 458.65 518.351 458.618 518.234 458.591C518.117 458.565 517.98 458.541 517.824 458.52L517.104 458.403C516.805 458.358 516.553 458.295 516.348 458.215C516.143 458.134 515.977 458.038 515.85 457.927C515.723 457.816 515.632 457.692 515.576 457.555C515.521 457.418 515.493 457.269 515.493 457.107C515.493 456.895 515.541 456.712 515.636 456.557C515.731 456.402 515.866 456.274 516.04 456.173C516.215 456.072 516.425 455.997 516.67 455.95C516.916 455.902 517.19 455.878 517.491 455.878C517.705 455.878 517.908 455.889 518.099 455.912C518.29 455.934 518.473 455.968 518.647 456.012C518.822 456.057 518.99 456.113 519.151 456.179C519.313 456.245 519.472 456.321 519.628 456.406L519.286 457.089C519.136 457.002 518.98 456.931 518.82 456.878C518.659 456.824 518.501 456.783 518.346 456.754C518.19 456.725 518.042 456.705 517.901 456.695C517.76 456.686 517.634 456.681 517.521 456.681C517.38 456.681 517.252 456.688 517.136 456.701C517.02 456.715 516.92 456.739 516.837 456.773C516.754 456.807 516.689 456.852 516.644 456.909C516.598 456.965 516.575 457.036 516.575 457.122C516.575 457.203 516.594 457.269 516.632 457.32C516.669 457.371 516.72 457.412 516.785 457.444C516.849 457.476 516.924 457.501 517.009 457.519C517.094 457.536 517.185 457.552 517.28 457.565L518.32 457.749C518.59 457.79 518.824 457.842 519.022 457.905C519.22 457.969 519.384 458.048 519.514 458.145C519.644 458.241 519.74 458.356 519.802 458.491C519.865 458.625 519.896 458.782 519.896 458.963C519.896 459.127 519.87 459.274 519.819 459.404C519.767 459.535 519.695 459.649 519.603 459.749C519.511 459.848 519.401 459.933 519.273 460.004C519.145 460.075 519.004 460.133 518.849 460.178C518.695 460.222 518.529 460.255 518.353 460.277C518.177 460.298 517.995 460.309 517.809 460.309C517.537 460.309 517.278 460.285 517.03 460.237C516.782 460.19 516.552 460.13 516.34 460.059C516.128 459.988 515.938 459.912 515.768 459.829C515.599 459.746 515.457 459.67 515.344 459.6L515.79 458.887C515.903 458.959 516.037 459.031 516.19 459.101C516.344 459.171 516.507 459.233 516.679 459.287C516.852 459.342 517.029 459.386 517.21 459.42C517.391 459.454 517.566 459.471 517.735 459.471C518.081 459.471 518.339 459.432 518.506 459.355C518.674 459.277 518.757 459.163 518.757 459.013ZM524.857 460.183L523.24 458.222L522.3 458.981L522.321 460.183H521.203V456.004H522.321L522.3 457.898L524.649 456.004H526.022L524.048 457.612L526.153 460.183H524.857ZM453.12 467.357V464.015H451.307V463.177H456.045V464.015H454.238V467.357H453.12ZM459.069 467.482C458.645 467.482 458.261 467.43 457.917 467.325C457.573 467.22 457.279 467.07 457.035 466.877C456.792 466.683 456.604 466.45 456.472 466.178C456.34 465.905 456.274 465.601 456.274 465.264C456.274 464.931 456.34 464.629 456.472 464.356C456.604 464.084 456.792 463.851 457.035 463.659C457.279 463.466 457.573 463.317 457.918 463.211C458.263 463.105 458.65 463.052 459.078 463.052C459.5 463.052 459.883 463.105 460.227 463.211C460.571 463.317 460.863 463.466 461.105 463.66C461.347 463.854 461.534 464.086 461.666 464.358C461.797 464.629 461.863 464.931 461.863 465.264C461.863 465.601 461.797 465.905 461.666 466.178C461.534 466.45 461.347 466.683 461.104 466.877C460.861 467.07 460.568 467.22 460.224 467.325C459.88 467.43 459.495 467.482 459.069 467.482ZM459.072 466.645C459.316 466.645 459.537 466.612 459.736 466.548C459.935 466.484 460.106 466.392 460.248 466.272C460.389 466.153 460.499 466.008 460.578 465.838C460.656 465.667 460.695 465.476 460.695 465.264C460.695 465.052 460.657 464.861 460.581 464.692C460.504 464.523 460.395 464.379 460.254 464.26C460.112 464.141 459.941 464.05 459.741 463.986C459.541 463.921 459.318 463.889 459.072 463.889C458.828 463.889 458.607 463.921 458.407 463.986C458.208 464.05 458.037 464.141 457.895 464.26C457.752 464.379 457.642 464.523 457.565 464.693C457.487 464.864 457.449 465.054 457.449 465.264C457.449 465.478 457.488 465.67 457.566 465.84C457.644 466.011 457.755 466.155 457.898 466.274C458.04 466.393 458.211 466.484 458.41 466.548C458.61 466.612 458.83 466.645 459.072 466.645ZM462.571 467.357V463.177H464.908C465.092 463.177 465.273 463.184 465.452 463.197C465.63 463.211 465.798 463.237 465.957 463.275C466.116 463.313 466.262 463.364 466.396 463.429C466.529 463.495 466.645 463.578 466.742 463.681C466.839 463.783 466.915 463.906 466.969 464.05C467.024 464.194 467.051 464.363 467.051 464.558C467.051 464.818 467.005 465.041 466.913 465.226C466.821 465.411 466.692 465.563 466.526 465.681C466.361 465.8 466.163 465.887 465.932 465.943C465.701 465.998 465.447 466.026 465.169 466.026H463.671V467.357H462.571ZM465.053 465.229C465.172 465.229 465.282 465.217 465.383 465.192C465.484 465.168 465.572 465.13 465.645 465.077C465.718 465.025 465.775 464.957 465.816 464.874C465.856 464.792 465.877 464.691 465.877 464.572C465.877 464.455 465.856 464.359 465.816 464.282C465.775 464.205 465.718 464.144 465.645 464.099C465.572 464.055 465.484 464.023 465.382 464.005C465.28 463.986 465.168 463.977 465.047 463.977H463.671V465.229H465.053ZM471.787 463.177V463.997H468.885V467.357H467.768V463.177H471.787ZM474.914 467.482C474.49 467.482 474.106 467.43 473.762 467.325C473.418 467.22 473.125 467.07 472.881 466.877C472.637 466.683 472.449 466.45 472.318 466.178C472.186 465.905 472.12 465.601 472.12 465.264C472.12 464.931 472.186 464.629 472.318 464.356C472.449 464.084 472.637 463.851 472.881 463.659C473.125 463.466 473.419 463.317 473.764 463.211C474.109 463.105 474.495 463.052 474.923 463.052C475.345 463.052 475.728 463.105 476.072 463.211C476.416 463.317 476.709 463.466 476.951 463.66C477.193 463.854 477.379 464.086 477.511 464.358C477.643 464.629 477.709 464.931 477.709 465.264C477.709 465.601 477.643 465.905 477.511 466.178C477.379 466.45 477.192 466.683 476.949 466.877C476.707 467.07 476.413 467.22 476.069 467.325C475.725 467.43 475.34 467.482 474.914 467.482ZM474.917 466.645C475.161 466.645 475.383 466.612 475.582 466.548C475.781 466.484 475.951 466.392 476.093 466.272C476.235 466.153 476.345 466.008 476.423 465.838C476.501 465.667 476.541 465.476 476.541 465.264C476.541 465.052 476.502 464.861 476.426 464.692C476.35 464.523 476.241 464.379 476.099 464.26C475.957 464.141 475.786 464.05 475.586 463.986C475.386 463.921 475.163 463.889 474.917 463.889C474.674 463.889 474.452 463.921 474.253 463.986C474.054 464.05 473.883 464.141 473.74 464.26C473.597 464.379 473.487 464.523 473.41 464.693C473.333 464.864 473.294 465.054 473.294 465.264C473.294 465.478 473.333 465.67 473.412 465.84C473.49 466.011 473.6 466.155 473.743 466.274C473.886 466.393 474.057 466.484 474.256 466.548C474.455 466.612 474.676 466.645 474.917 466.645ZM481.85 465.194C481.995 465.206 482.141 465.229 482.289 465.264C482.436 465.299 482.57 465.353 482.69 465.427C482.81 465.501 482.907 465.598 482.983 465.718C483.058 465.838 483.096 465.988 483.096 466.169C483.096 466.344 483.062 466.504 482.993 466.649C482.925 466.794 482.819 466.919 482.675 467.024C482.531 467.129 482.347 467.211 482.122 467.269C481.897 467.328 481.628 467.357 481.315 467.357H478.416V463.177H481.315C481.573 463.177 481.803 463.197 482.005 463.238C482.207 463.279 482.378 463.342 482.518 463.428C482.657 463.514 482.764 463.624 482.839 463.759C482.913 463.895 482.95 464.056 482.95 464.242C482.95 464.408 482.917 464.545 482.852 464.654C482.787 464.763 482.701 464.852 482.596 464.921C482.491 464.99 482.373 465.042 482.243 465.077C482.112 465.112 481.981 465.138 481.85 465.156V465.194ZM481.038 466.627C481.163 466.627 481.28 466.622 481.389 466.612C481.498 466.603 481.592 466.579 481.672 466.542C481.751 466.505 481.813 466.451 481.859 466.379C481.905 466.307 481.927 466.209 481.927 466.084C481.927 465.965 481.905 465.871 481.859 465.801C481.813 465.731 481.753 465.677 481.678 465.641C481.602 465.604 481.516 465.58 481.418 465.569C481.319 465.558 481.219 465.553 481.116 465.553H479.507V466.627H481.038ZM481.122 464.893C481.199 464.893 481.277 464.887 481.357 464.876C481.436 464.864 481.508 464.841 481.572 464.806C481.637 464.771 481.689 464.721 481.728 464.657C481.768 464.593 481.788 464.508 481.788 464.403C481.788 464.296 481.767 464.21 481.727 464.145C481.686 464.079 481.633 464.03 481.568 463.996C481.502 463.962 481.428 463.939 481.345 463.929C481.261 463.918 481.177 463.913 481.092 463.913H479.507V464.893H481.122ZM489.059 467.357V463.177H490.177V467.357H489.059ZM484.995 463.177V464.528H486.494C486.66 464.528 486.823 464.538 486.981 464.556C487.14 464.575 487.288 464.605 487.427 464.648C487.566 464.691 487.694 464.749 487.811 464.822C487.928 464.895 488.028 464.985 488.111 465.092C488.194 465.199 488.259 465.326 488.306 465.473C488.352 465.62 488.376 465.789 488.376 465.982C488.376 466.19 488.345 466.369 488.285 466.518C488.224 466.666 488.142 466.792 488.038 466.893C487.934 466.994 487.812 467.075 487.671 467.136C487.53 467.198 487.381 467.245 487.222 467.278C487.064 467.311 486.9 467.332 486.732 467.342C486.563 467.352 486.398 467.357 486.235 467.357H483.895V463.177H484.995ZM484.995 465.334V466.557H486.372C486.461 466.557 486.554 466.553 486.651 466.544C486.748 466.535 486.838 466.511 486.919 466.471C487 466.431 487.068 466.371 487.121 466.29C487.175 466.209 487.201 466.097 487.201 465.953C487.201 465.83 487.182 465.729 487.143 465.649C487.105 465.569 487.049 465.506 486.977 465.46C486.904 465.413 486.818 465.38 486.717 465.362C486.616 465.343 486.503 465.334 486.378 465.334H484.995ZM494.916 461.671C494.91 461.797 494.884 461.915 494.839 462.024C494.793 462.133 494.722 462.227 494.626 462.307C494.53 462.387 494.406 462.449 494.253 462.494C494.1 462.539 493.915 462.561 493.697 462.561C493.479 462.561 493.295 462.538 493.146 462.493C492.996 462.447 492.874 462.384 492.78 462.304C492.686 462.225 492.616 462.131 492.572 462.023C492.527 461.915 492.5 461.798 492.49 461.674L493.12 461.551C493.13 461.695 493.18 461.811 493.27 461.9C493.361 461.989 493.502 462.033 493.694 462.033C493.888 462.033 494.034 461.989 494.131 461.901C494.228 461.814 494.282 461.697 494.292 461.551L494.916 461.671ZM491.247 467.357V463.177H492.249V465.699L492.228 466.061L492.499 465.789L494.937 463.177H496.072V467.357H495.071V464.835L495.091 464.473L494.821 464.744L492.362 467.357H491.247ZM503.841 468.139V467.357H499.289V463.177H500.407V466.54H502.922V463.177H504.04V466.54H504.857V468.139H503.841ZM505.532 467.357V463.177H509.679V463.994H506.65V464.861H509.26V465.62H506.65V466.537H509.754V467.357H505.532ZM514.305 467.357V465.632H511.716V467.357H510.598V463.177H511.716V464.814H514.305V463.177H515.423V467.357H514.305ZM517.849 467.357V464.015H516.035V463.177H520.774V464.015H518.967V467.357H517.849ZM521.392 467.357V463.177H523.729C523.913 463.177 524.095 463.184 524.273 463.197C524.452 463.211 524.62 463.237 524.779 463.275C524.937 463.313 525.083 463.364 525.217 463.429C525.351 463.495 525.466 463.578 525.563 463.681C525.661 463.783 525.736 463.906 525.791 464.05C525.845 464.194 525.873 464.363 525.873 464.558C525.873 464.818 525.827 465.041 525.734 465.226C525.642 465.411 525.513 465.563 525.348 465.681C525.182 465.8 524.984 465.887 524.753 465.943C524.522 465.998 524.268 466.026 523.991 466.026H522.492V467.357H521.392ZM523.875 465.229C523.994 465.229 524.104 465.217 524.205 465.192C524.306 465.168 524.393 465.13 524.466 465.077C524.54 465.025 524.597 464.957 524.637 464.874C524.678 464.792 524.698 464.691 524.698 464.572C524.698 464.455 524.678 464.359 524.637 464.282C524.597 464.205 524.54 464.144 524.466 464.099C524.393 464.055 524.305 464.023 524.203 464.005C524.101 463.986 523.99 463.977 523.869 463.977H522.492V465.229H523.875Z" fill="#BFBFBF"/>
<rect x="74.6191" y="287.904" width="652.761" height="22.0696" fill="#F7F7F7" stroke="#BFBFBF" stroke-width="2"/>
<rect x="62.3496" y="275.643" width="677.301" height="12.2609" fill="#F7F7F7" stroke="#BFBFBF" stroke-width="2"/>
<rect x="86.8887" y="253.574" width="628.221" height="22.0696" fill="#F7F7F7" stroke="#BFBFBF" stroke-width="2"/>
<rect x="74.6191" y="241.313" width="85.8896" height="12.2609" fill="#F7F7F7" stroke="#BFBFBF" stroke-width="2"/>
<rect x="160.508" y="241.313" width="85.8896" height="12.2609" fill="#F7F7F7" stroke="#BFBFBF" stroke-width="2"/>
<rect x="641.49" y="241.313" width="85.8896" height="12.2609" fill="#F7F7F7" stroke="#BFBFBF" stroke-width="2"/>
<rect x="555.602" y="241.313" width="85.8896" height="12.2609" fill="#F7F7F7" stroke="#BFBFBF" stroke-width="2"/>
<rect x="246.398" y="241.313" width="395.092" height="12.2609" fill="#F7F7F7" stroke="#BFBFBF" stroke-width="2"/>
<rect x="86.8887" y="229.052" width="61.3497" height="12.2609" fill="#F7F7F7" stroke="#BFBFBF" stroke-width="2"/>
<rect x="148.238" y="229.052" width="61.3497" height="12.2609" fill="#F7F7F7" stroke="#BFBFBF" stroke-width="2"/>
<rect x="592.41" y="229.052" width="61.3497" height="12.2609" fill="#F7F7F7" stroke="#BFBFBF" stroke-width="2"/>
<rect x="653.76" y="229.052" width="61.3497" height="12.2609" fill="#F7F7F7" stroke="#BFBFBF" stroke-width="2"/>
<rect x="62.3496" y="555.191" width="677.301" height="4.90435" fill="#F7F7F7" stroke="#BFBFBF"/>
<rect x="1" y="560.096" width="800" height="4.90435" fill="#F7F7F7" stroke="#BFBFBF"/>
<rect x="135.969" y="550.287" width="530.061" height="4.90435" fill="#F7F7F7" stroke="#BFBFBF"/>
<rect x="197.318" y="545.383" width="407.362" height="4.90435" fill="#F7F7F7" stroke="#BFBFBF"/>
<path d="M240.264 540.478H561.736V545.383H240.264V540.478Z" fill="#F7F7F7" stroke="#BFBFBF"/>
</svg>
