<svg width="967" height="747" viewBox="0 0 967 747" fill="none" xmlns="http://www.w3.org/2000/svg">
<path d="M32.378 29.9379L29.918 32.3038V29.9379H32.378Z" fill="#D9D9D9"/>
<path d="M29.8306 56.752L57.4178 29.9379H59.7021V27.5719L83.9508 4H88.8709L29.8306 61.6592V56.752Z" fill="#D9D9D9"/>
<path d="M29.7427 86.1074L113.822 4H118.742L29.7427 90.927V86.1074Z" fill="#D9D9D9"/>
<path d="M29.6548 115.375L143.782 4H148.702L29.6548 120.195V115.375Z" fill="#D9D9D9"/>
<path d="M29.5669 144.731L173.653 4H178.573L29.479 149.55L29.5669 144.731Z" fill="#D9D9D9"/>
<path d="M29.3911 173.998L203.613 4H208.533L29.3911 178.818V173.998Z" fill="#D9D9D9"/>
<path d="M29.3032 203.266L233.484 4H238.404L29.3032 208.086V203.266Z" fill="#D9D9D9"/>
<path d="M29.2153 232.621L263.444 4H268.364L30.0061 236.652H29.2153V232.621Z" fill="#D9D9D9"/>
<path d="M54.9575 236.652L293.315 4H298.323L59.9654 236.652H54.9575Z" fill="#D9D9D9"/>
<path d="M84.917 236.652L323.275 4H328.195L89.837 236.652H84.917Z" fill="#D9D9D9"/>
<path d="M114.876 236.652L353.146 4H358.154L119.796 236.652H114.876Z" fill="#D9D9D9"/>
<path d="M144.748 236.652L383.106 4H388.026L149.668 236.652H144.748Z" fill="#D9D9D9"/>
<path d="M174.708 236.652L413.065 4H417.985L179.628 236.652H174.708Z" fill="#D9D9D9"/>
<path d="M204.579 236.652L442.937 4H443.025V8.81954L209.499 236.652H204.579Z" fill="#D9D9D9"/>
<path d="M234.539 236.652L443.025 33.1802V37.9997L239.459 236.652H234.539Z" fill="#D9D9D9"/>
<path d="M264.41 236.652L462.968 42.8192H467.888L269.33 236.652H264.41Z" fill="#D9D9D9"/>
<path d="M294.37 236.652L492.928 42.8192H497.848L299.29 236.652H294.37Z" fill="#D9D9D9"/>
<path d="M324.241 236.652L522.799 42.8192H527.807L329.249 236.652H324.241Z" fill="#D9D9D9"/>
<path d="M354.201 236.652L552.759 42.8192H557.679L359.121 236.652H354.201Z" fill="#D9D9D9"/>
<path d="M384.072 236.652L582.718 42.8192H587.638L389.08 236.652H384.072Z" fill="#D9D9D9"/>
<path d="M414.032 236.652L612.59 42.8192H617.51L418.952 236.652H414.032Z" fill="#D9D9D9"/>
<path d="M443.991 236.652L642.549 42.8192H647.469L448.911 236.652H443.991Z" fill="#D9D9D9"/>
<path d="M473.862 236.652L672.42 42.8192H677.34L478.782 236.652H473.862Z" fill="#D9D9D9"/>
<path d="M503.822 236.652L702.38 42.8192H707.3L508.742 236.652H503.822Z" fill="#D9D9D9"/>
<path d="M533.693 236.652L732.251 42.8192H737.172L538.613 236.652H533.693Z" fill="#D9D9D9"/>
<path d="M563.653 236.652L762.211 42.8192H767.131L568.573 236.652H563.653Z" fill="#D9D9D9"/>
<path d="M593.524 236.652L792.083 42.8192H797.09L598.444 236.652H593.524Z" fill="#D9D9D9"/>
<path d="M623.484 236.652L822.042 42.8192H826.962L628.404 236.652H623.484Z" fill="#D9D9D9"/>
<path d="M653.355 236.652L851.914 42.8192H856.921L658.363 236.652H653.355Z" fill="#D9D9D9"/>
<path d="M683.315 236.652L881.873 42.8192H886.793L688.235 236.652H683.315Z" fill="#D9D9D9"/>
<path d="M713.274 236.652L911.833 42.8192H916.753L718.194 236.652H713.274Z" fill="#D9D9D9"/>
<path d="M743.146 236.652L922.375 61.6592V66.4787L748.066 236.652H743.146Z" fill="#D9D9D9"/>
<path d="M773.105 236.652L922.375 90.927V95.7465L778.025 236.652H773.105Z" fill="#D9D9D9"/>
<path d="M802.977 236.652L931.337 111.344H936.257L807.897 236.652H802.977Z" fill="#D9D9D9"/>
<path d="M832.937 236.652L961.296 111.344H962.878V114.586L837.857 236.652H832.937Z" fill="#D9D9D9"/>
<path d="M862.808 236.652L962.878 139.035V143.854L867.728 236.652H862.808Z" fill="#D9D9D9"/>
<path d="M892.768 236.652L962.878 168.215V173.034L897.688 236.652H892.768Z" fill="#D9D9D9"/>
<path d="M922.639 236.652L962.878 197.395V202.215L927.559 236.652H922.639Z" fill="#D9D9D9"/>
<path d="M952.599 236.652L962.878 226.575V231.395L957.519 236.652H952.599Z" fill="#D9D9D9"/>
<path d="M6.72358 405.336L4 408.053V405.336H6.72358Z" fill="#D9D9D9"/>
<path d="M4 432.413L31.763 405.336H36.683L4 437.233V432.413Z" fill="#D9D9D9"/>
<path d="M4 461.593L61.6346 405.336H66.6425L4 466.413V461.593Z" fill="#D9D9D9"/>
<path d="M4 490.773L91.594 405.336H96.514L4 495.593V490.773Z" fill="#D9D9D9"/>
<path d="M4 520.041L121.553 405.336H126.473L4 524.773V520.041Z" fill="#D9D9D9"/>
<path d="M4 549.221L151.425 405.336H156.345L4 554.041V549.221Z" fill="#D9D9D9"/>
<path d="M4 578.401L181.384 405.336H186.304L4 583.221V578.401Z" fill="#D9D9D9"/>
<path d="M4 607.582L211.256 405.336H216.176L4 612.401V607.582Z" fill="#D9D9D9"/>
<path d="M4 636.762L241.215 405.336H246.135L4 641.581V636.762Z" fill="#D9D9D9"/>
<path d="M4 666.029L271.087 405.336H276.007L4 670.849V666.029Z" fill="#D9D9D9"/>
<path d="M4 695.21L301.046 405.336H305.966L4 700.029V695.21Z" fill="#D9D9D9"/>
<path d="M4 724.39L330.918 405.336H335.838L4 729.209V724.39Z" fill="#D9D9D9"/>
<path d="M15.2456 742.616L360.877 405.336H365.797L20.1656 742.616H15.2456Z" fill="#D9D9D9"/>
<path d="M45.2051 742.616L390.749 405.336H395.757L50.1251 742.616H45.2051Z" fill="#D9D9D9"/>
<path d="M75.0767 742.616L420.708 405.336H425.628L79.9967 742.616H75.0767Z" fill="#D9D9D9"/>
<path d="M105.036 742.616L450.668 405.336H455.588L109.956 742.616H105.036Z" fill="#D9D9D9"/>
<path d="M134.908 742.616L480.539 405.336H485.459L139.916 742.616H134.908Z" fill="#D9D9D9"/>
<path d="M164.867 742.616L510.499 405.336H515.419L169.787 742.616H164.867Z" fill="#D9D9D9"/>
<path d="M194.827 742.616L540.371 405.336H545.291L199.747 742.616H194.827Z" fill="#D9D9D9"/>
<path d="M224.698 742.616L570.33 405.336H575.25L229.618 742.616H224.698Z" fill="#D9D9D9"/>
<path d="M254.658 742.616L600.202 405.336H605.122L259.578 742.616H254.658Z" fill="#D9D9D9"/>
<path d="M284.529 742.616L630.161 405.336H635.081L289.449 742.616H284.529Z" fill="#D9D9D9"/>
<path fill-rule="evenodd" clip-rule="evenodd" d="M665.04 405.336H660.12V405.249L346.117 711.771H351.038L665.04 405.336ZM346.03 711.771L314.489 742.616H319.409L346.03 716.591V711.771Z" fill="#D9D9D9"/>
<path fill-rule="evenodd" clip-rule="evenodd" d="M694.912 405.336H689.992L376.077 711.684H380.997L694.912 405.336ZM346.03 741.039L344.36 742.616H346.03V741.039Z" fill="#D9D9D9"/>
<path d="M406.124 711.508L719.863 405.336H724.871L411.132 711.508H406.124Z" fill="#D9D9D9"/>
<path d="M436.259 711.421L749.823 405.336H754.743L441.179 711.333L436.259 711.421Z" fill="#D9D9D9"/>
<path d="M466.307 711.245L779.782 405.336H784.702L471.227 711.245H466.307Z" fill="#D9D9D9"/>
<path d="M496.354 711.07L809.654 405.336H814.574L501.274 711.07H496.354Z" fill="#D9D9D9"/>
<path d="M526.401 710.983L839.614 405.336H844.534L531.409 710.983H526.401Z" fill="#D9D9D9"/>
<path d="M556.448 710.807L869.485 405.336H874.405L561.456 710.807H556.448Z" fill="#D9D9D9"/>
<path d="M586.583 710.72L899.444 405.336H904.364L591.504 710.632L586.583 710.72Z" fill="#D9D9D9"/>
<path d="M616.631 710.544L929.316 405.336H934.236L621.551 710.544H616.631Z" fill="#D9D9D9"/>
<path d="M646.678 710.369L959.275 405.336H962.087V407.352L651.598 710.369H646.678Z" fill="#D9D9D9"/>
<path d="M676.726 710.282L962.087 431.712V436.532L681.646 710.194L676.726 710.282Z" fill="#D9D9D9"/>
<path d="M706.773 710.106L962.087 460.98V465.799L711.781 710.106H706.773Z" fill="#D9D9D9"/>
<path d="M736.82 710.019L962.087 490.16V494.98L741.828 709.931L736.82 710.019Z" fill="#D9D9D9"/>
<path d="M766.955 709.843L962.087 519.34V524.16L771.875 709.843H766.955Z" fill="#D9D9D9"/>
<path d="M797.002 709.668L962.087 548.52V553.34L801.922 709.668H797.002Z" fill="#D9D9D9"/>
<path d="M827.05 709.581L962.087 577.788V582.52L831.97 709.493L827.05 709.581Z" fill="#D9D9D9"/>
<path fill-rule="evenodd" clip-rule="evenodd" d="M962.087 606.968L927.91 640.267H927.998L933.182 640.004L962.087 611.788V606.968ZM921.672 646.401L857.097 709.405H857.185H862.105L921.672 651.22V646.401Z" fill="#D9D9D9"/>
<path fill-rule="evenodd" clip-rule="evenodd" d="M959.545 638.511L959.451 638.602V638.514L959.545 638.511ZM959.545 638.511L962.087 638.427V636.061L959.545 638.511ZM921.585 675.581L887.145 709.23H892.065L921.585 680.4V675.581Z" fill="#D9D9D9"/>
<path d="M917.279 709.142L921.672 704.849V709.142H917.279Z" fill="#D9D9D9"/>
<path d="M59.7017 4H443.024V42.8192H922.375V111.344H962.878V239.281H948.381V401.481H962.087V640.617H921.672V709.142H346.03V742.616H4V400.692H46.7866V361.873H5.49358V281.167H45.9959V240.858H29.2151V29.9379H59.7017V4Z" stroke="#BFBFBF" stroke-width="8"/>
<path d="M33.8743 36.4979H48.3993V90.7396H72.4244V145.157H33.3247L33.8743 36.4979Z" fill="#D9D9D9"/>
<path d="M33.484 146.991H72.4244V236.897H33.3247L33.484 146.991Z" fill="#D9D9D9"/>
<path d="M184.514 142.277V235.652H117.458V10.433H252.076V22.4535H226.367H225.367V23.4535V141.277H185.514H184.514V142.277Z" fill="#F7F7F7" stroke="#BFBFBF" stroke-width="2"/>
<rect x="187.886" y="144.205" width="38.3059" height="92.4475" fill="#E31E4C"/>
<path d="M338.001 104.597V235.915H229.389L229.563 26.9946H415.579V56.4531H384.423H383.423V57.4531V67.4942H350.159H349.159V68.4942V103.597H339.001H338.001V104.597Z" fill="#F7F7F7" stroke="#BFBFBF" stroke-width="2"/>
<path d="M341.846 107.7H368.96H369.96V106.7V101.829H397.305V203.091V204.091H398.305H408.99V235.74H341.933L341.846 107.7Z" fill="#F7F7F7" stroke="#BFBFBF" stroke-width="2"/>
<path d="M718.6 112.571V235.915H647.678V47.3243H768.24V111.571H719.6H718.6V112.571Z" fill="#F7F7F7" stroke="#BFBFBF" stroke-width="2"/>
<path d="M721.269 114.499H769.239V236.915H721.269V114.499Z" fill="#D9D9D9"/>
<path fill-rule="evenodd" clip-rule="evenodd" d="M919.3 45.9738H873.878L871.945 46.4995V115.463H812.854L813.223 135.179H793.664V236.915H891.457V236.302H959.012V115.989H958.805V115.463H919.3V45.9738Z" fill="#D9D9D9"/>
<path d="M189.467 266.621L383.808 274.245V334.796H375.023V350.393H284.881L270.911 346.713L188.677 376.682L189.467 266.621Z" fill="#F7F7F7" stroke="#BFBFBF"/>
<path d="M423.256 266.533L567.958 309.559H600.377V276.435H691.661V295.1H706.509L795.069 267.322L879.061 274.595L861.138 376.244H788.217L496.178 363.275L409.902 375.806L423.256 266.533Z" fill="#F7F7F7" stroke="#BFBFBF"/>
<path d="M647.503 407.125H862.247V497.258V498.258H863.247H957.485V632.695H918.598H917.598V633.695V702.885H874.878V633.519V632.519H873.878H790.853H789.853V633.519V703.235H576.865V690.338H646.678H647.679L647.678 689.338L647.503 407.125Z" fill="#F7F7F7" stroke="#BFBFBF" stroke-width="2"/>
<path d="M415.7 406.212H569.363H643.954L644.042 554.304V686.972H418.248V673.653V578.314H412.538V554.654H419.566V546.68H415.7V481.222V406.212Z" fill="#D9D9D9"/>
<path d="M342.9 406.862H413.547V529.557H342.9V406.862Z" fill="#F7F7F7" stroke="#BFBFBF" stroke-width="2"/>
<path d="M292.736 406.862H340.549V529.555H338.737H337.737V530.555V551.464H293.17L292.736 406.862Z" fill="#F7F7F7" stroke="#BFBFBF" stroke-width="2"/>
<path d="M190.995 407.212H263.586V450.867H190.995V407.212Z" fill="#F7F7F7" stroke="#BFBFBF" stroke-width="2"/>
<path fill-rule="evenodd" clip-rule="evenodd" d="M187.974 405.599H7.7778L7.68994 405.774L7.86566 738.936H341.9V699.153H335.399V667.519H302.804V603.551L302.979 602.937H267.485V625.37H242.885V620.2H259.138V605.741H262.389V585.587V584.623H237.613V566.134H197.111V582.082H192.542V613.453H202.997V624.319H188.501V536.953H264.673V513.557H187.974V405.599ZM226.895 638.427H188.764L188.852 699.153H226.895V638.427Z" fill="#D9D9D9"/>
<path d="M531.145 85.5817H571.121V236.302H519.109V113.623H531.233L531.145 85.5817Z" fill="#D9D9D9"/>
<path d="M532.233 81.6899V46.7109H643.57V235.389H573.878V82.6899V81.6899H572.878H532.233Z" fill="#F7F7F7" stroke="#BFBFBF" stroke-width="2"/>
<path d="M866.092 406.862H957.485V493.717H866.092V406.862Z" fill="#F7F7F7" stroke="#BFBFBF" stroke-width="2"/>
</svg>
