<svg width="261" height="220" viewBox="0 0 261 220" fill="none" xmlns="http://www.w3.org/2000/svg">
<rect y="219" width="261" height="1" fill="#F7F7F7"/>
<path fill-rule="evenodd" clip-rule="evenodd" d="M98.6716 152.947C98.0676 151.732 97.1484 151.048 95.762 151.048C94.5367 151.048 93.6241 151.488 93.0179 152.209C92.4117 152.93 92.1119 153.932 92.1137 155.053C92.1148 156.174 92.4486 157.176 93.079 157.897C93.7082 158.618 94.6333 159.059 95.8164 159.059C97.1656 159.059 98.1927 158.49 98.7846 157.78V156.115H95.8691V154.949H100.076V158.211C99.4727 158.958 98.9119 159.396 98.0384 159.762C97.3598 160.047 96.6175 160.183 95.823 160.183C94.2113 160.183 92.9645 159.559 92.1214 158.605C91.2779 157.652 90.8369 156.367 90.8355 155.046C90.8333 152.404 92.4603 149.909 95.755 149.909C97.6636 149.909 99.5338 151.037 100.097 152.944L98.6716 152.947ZM115.25 150.076L119.261 160.016H117.764L116.655 157.004H112.449L111.35 160.016H109.954L113.803 150.076H115.25ZM220.339 160.016H218.842L217.733 157.003H213.528L212.427 160.016H211.033L214.882 150.076H216.328L220.339 160.016ZM215.622 151.269L217.339 155.935H213.918L215.622 151.269ZM168.74 175.399C169.55 175.584 170.107 175.744 170.408 175.881C170.846 176.082 171.17 176.336 171.379 176.648C171.588 176.956 171.691 177.312 171.691 177.716C171.691 178.391 171.405 178.913 170.967 179.283C170.426 179.742 169.653 179.969 168.908 179.969C167.845 179.969 166.826 179.657 166.233 178.953C165.866 178.52 165.712 177.945 165.701 177.369H166.641C166.699 177.872 166.877 178.224 167.153 178.501C167.555 178.906 168.157 179.085 168.862 179.085C169.287 179.085 169.796 178.993 170.175 178.758C170.502 178.556 170.733 178.248 170.733 177.8C170.733 177.394 170.536 177.104 170.196 176.903C169.947 176.756 169.682 176.677 169.407 176.601C169.177 176.537 168.876 176.461 168.506 176.371L168.501 176.37C167.918 176.23 167.231 176.065 166.737 175.707C166.254 175.356 165.984 174.862 165.984 174.258C165.984 173.876 166.094 173.52 166.309 173.19C166.525 172.858 166.839 172.607 167.255 172.435C167.669 172.263 168.131 172.177 168.638 172.177C169.196 172.177 169.689 172.267 170.116 172.448C170.542 172.627 170.87 172.891 171.099 173.242C171.33 173.591 171.453 173.989 171.471 174.43L171.47 174.481L170.51 174.48C170.458 174.047 170.307 173.726 170.079 173.505C169.752 173.187 169.265 173.061 168.677 173.061C168.29 173.061 167.823 173.124 167.471 173.32C167.162 173.492 166.943 173.767 166.943 174.194C166.943 174.464 167.041 174.687 167.235 174.863C167.429 175.036 167.929 175.217 168.74 175.399ZM142.934 179.843H141.934V172.304H142.934V179.843ZM152.567 172.304L156.522 178.222V172.304H157.48V179.843H156.456L152.5 173.925V179.843H151.541V172.304H152.567ZM185.975 172.304H184.624L180.879 176.041V172.304H179.879V179.843H180.879V177.232L182.113 176.038L184.796 179.843H186.112L182.813 175.361L185.975 172.304ZM130.141 177.547C129.958 178.079 129.823 178.483 129.737 178.757C129.661 178.509 129.542 178.137 129.377 177.64L127.594 172.304H126.099V179.843H127.057V173.42L129.233 179.843H130.131L132.333 173.536V179.843H133.291V172.304H131.955L130.141 177.547ZM188.341 154.046C187.99 154.324 187.502 154.463 186.96 154.463H183.645V151.172H186.92C187.451 151.172 187.95 151.297 188.312 151.559C188.676 151.822 188.907 152.226 188.907 152.788C188.907 153.348 188.691 153.769 188.341 154.046ZM187.939 155.499L191.071 160.016H189.428L188.113 157.948L186.512 155.601H183.645V160.016H182.326V150.076H186.972C187.868 150.076 188.692 150.243 189.291 150.666C189.891 151.087 190.268 151.765 190.268 152.785C190.268 153.792 189.846 154.497 189.222 154.948C188.852 155.217 188.408 155.397 187.939 155.499ZM114.544 151.269L116.261 155.934H112.84L114.544 151.269ZM200.526 160.017H201.845V150.076H200.526V160.017ZM165.72 158.85H171.161V160.016H164.4V150.076H171.161V151.241H165.72V154.296H171.161V155.462H165.72V158.85ZM153.788 158.85H148.901V150.076H147.582V160.016H153.788V158.85ZM136.043 158.85H131.156V150.076H129.837V160.016H136.043V158.85Z" fill="black"/>
<path fill-rule="evenodd" clip-rule="evenodd" d="M78.7165 108.135C89.6291 100.388 105.166 88.8224 111.397 76.8718C113.133 73.5434 113.564 70.7014 113.041 68.5727C112.496 66.35 106.546 58.4133 103.879 55.8254C99.7099 51.7804 91.9205 56.7796 88.6953 59.7837C81.0467 66.9091 77.5611 79.1851 75.4317 85.4795C74.1256 89.3409 72.511 94.029 70.6448 99.1391C60.228 105.718 49.9505 111.188 42.5794 113.225C39.9523 113.95 37.4792 114.362 35.2116 114.4C29.424 114.498 28.8763 111.024 28.798 106.28C28.3523 79.3617 60.3213 21.6038 99.0383 11.4678C107.7 9.20012 115.145 9.15259 118.691 9.61657C122.858 10.1625 124.349 12.6034 123.619 16.5464C123.117 19.2641 122.675 21.2115 120.909 24.4681C124.039 25.0009 123.65 28.2162 124.177 30.4575C124.652 32.4721 125.209 34.5029 127.886 35.3391C132.624 26.6045 130.9 17.916 128.593 14.7562C126.226 11.5138 123.793 8.02352 121.181 5.16466C116.806 0.377452 105.557 -1.39659 95.4671 1.1855C55.1417 11.5069 20.5589 69.4838 21.0043 96.403C21.0785 100.857 21.7681 104.376 22.9746 107.075C24.3085 110.063 32.0405 119.919 34.3059 121.51C38.4174 124.395 44.1534 124.82 50.3724 123.102C53.903 122.126 58.0997 120.363 62.6298 118.056C56.3286 131.323 51.2456 142.715 41.0127 149.651L50.8803 159.721C50.8803 159.721 150.297 99.8645 220.817 99.8645V89.9014C150.388 89.9014 65.2558 137.911 65.2558 137.911C70.7059 128.357 75.2203 117.52 78.7165 108.135ZM86.186 86.5844C88.401 80.7332 91.5852 74.097 96.4635 69.5562C98.3596 67.791 100.23 66.5014 101.998 65.6392C104.061 64.6319 104.386 65.3409 103.579 66.8886C100.493 72.8049 94.0295 79.8133 86.186 86.5844Z" fill="#E31E4C"/>
</svg>
