<svg width="40" height="40" viewBox="0 0 40 40" fill="none" xmlns="http://www.w3.org/2000/svg">
<path d="M39 20C39 30.4934 30.4934 39 20 39C9.50659 39 1 30.4934 1 20C1 9.50659 9.50659 1 20 1C30.4934 1 39 9.50659 39 20Z" stroke="#E31E4C" stroke-width="2"/>
<path d="M29.6152 15.4883C29.7793 15.9102 29.2754 16.8945 28.1035 18.4414C27.9395 18.6523 27.7285 18.9336 27.4707 19.2852C26.9316 19.9414 26.627 20.375 26.5566 20.5859C26.4395 20.8672 26.4863 21.1367 26.6973 21.3945C26.8145 21.5352 27.084 21.8164 27.5059 22.2383H27.541V22.2734C28.502 23.1406 29.1465 23.8789 29.4746 24.4883C29.498 24.5352 29.5215 24.582 29.5449 24.6289C29.5684 24.6758 29.5918 24.7695 29.6152 24.9102C29.6387 25.0273 29.6387 25.1328 29.6152 25.2266C29.5918 25.3203 29.5098 25.4141 29.3691 25.5078C29.2285 25.5781 29.0293 25.6133 28.7715 25.6133L26.2051 25.6836C26.041 25.707 25.8418 25.6836 25.6074 25.6133C25.3965 25.543 25.2324 25.4727 25.1152 25.4023L24.9043 25.2617C24.6934 25.1211 24.459 24.9102 24.2012 24.6289C23.9434 24.3477 23.709 24.0898 23.498 23.8555C23.3105 23.6211 23.1113 23.4336 22.9004 23.293C22.6895 23.1289 22.502 23.0703 22.3379 23.1172C22.3145 23.1172 22.2793 23.1289 22.2324 23.1523C22.209 23.1758 22.1504 23.2344 22.0566 23.3281C21.9863 23.3984 21.916 23.4922 21.8457 23.6094C21.7988 23.7266 21.752 23.9023 21.7051 24.1367C21.6582 24.3477 21.6348 24.6055 21.6348 24.9102C21.6348 25.0039 21.623 25.0977 21.5996 25.1914C21.5762 25.2617 21.5527 25.3203 21.5293 25.3672L21.4941 25.4023C21.3535 25.543 21.166 25.6133 20.9316 25.6133H19.8066C19.3145 25.6602 18.8105 25.6133 18.2949 25.4727C17.8027 25.332 17.3691 25.1562 16.9941 24.9453C16.6191 24.7109 16.2793 24.4883 15.9746 24.2773C15.6699 24.043 15.4355 23.8438 15.2715 23.6797L15.0254 23.4336C14.9551 23.3867 14.8613 23.293 14.7441 23.1523C14.627 23.0117 14.3809 22.707 14.0059 22.2383C13.6543 21.7695 13.3027 21.2656 12.9512 20.7266C12.5996 20.1875 12.1895 19.4844 11.7207 18.6172C11.252 17.7266 10.8184 16.8125 10.4199 15.875C10.373 15.7578 10.3496 15.6641 10.3496 15.5938C10.3496 15.5234 10.3613 15.4648 10.3848 15.418L10.4199 15.3828C10.5137 15.2422 10.7012 15.1719 10.9824 15.1719H13.7598C13.8301 15.1719 13.9004 15.1953 13.9707 15.2422C14.041 15.2656 14.0996 15.2891 14.1465 15.3125L14.1816 15.3477C14.2988 15.418 14.3809 15.5234 14.4277 15.6641C14.5684 15.9922 14.7207 16.3438 14.8848 16.7188C15.0723 17.0703 15.2129 17.3398 15.3066 17.5273L15.4473 17.8086C15.6582 18.207 15.8457 18.5586 16.0098 18.8633C16.1973 19.1445 16.3613 19.3672 16.502 19.5312C16.6426 19.6953 16.7832 19.8242 16.9238 19.918C17.0645 20.0117 17.1816 20.0586 17.2754 20.0586C17.3691 20.0586 17.4629 20.0469 17.5566 20.0234C17.5566 20.0234 17.5684 20.0117 17.5918 19.9883C17.6152 19.9414 17.6504 19.8594 17.6973 19.7422C17.7676 19.625 17.8145 19.4727 17.8379 19.2852C17.8848 19.0977 17.9199 18.8281 17.9434 18.4766C17.9668 18.125 17.9668 17.7031 17.9434 17.2109C17.9199 16.9531 17.8848 16.7188 17.8379 16.5078C17.791 16.2734 17.7441 16.1094 17.6973 16.0156L17.6621 15.9102C17.498 15.6758 17.2051 15.5234 16.7832 15.4531C16.7129 15.4531 16.7363 15.3711 16.8535 15.207C16.9707 15.0898 17.0996 14.9961 17.2402 14.9258C17.5918 14.7383 18.3887 14.6562 19.6309 14.6797C20.1699 14.6797 20.627 14.7266 21.002 14.8203C21.1191 14.8438 21.2246 14.8906 21.3184 14.9609C21.4121 15.0078 21.4824 15.0898 21.5293 15.207C21.5762 15.3008 21.6113 15.4062 21.6348 15.5234C21.6582 15.6172 21.6699 15.7695 21.6699 15.9805C21.6699 16.168 21.6699 16.3438 21.6699 16.5078C21.6465 16.6953 21.6348 16.9297 21.6348 17.2109C21.6348 17.5156 21.6348 17.7969 21.6348 18.0547C21.6348 18.125 21.623 18.2656 21.5996 18.4766C21.5996 18.6875 21.5996 18.8516 21.5996 18.9688C21.5996 19.0859 21.6113 19.2266 21.6348 19.3906C21.6582 19.5312 21.6934 19.6602 21.7402 19.7773C21.8105 19.8711 21.8926 19.9414 21.9863 19.9883C22.0332 20.0117 22.0801 20.0352 22.127 20.0586C22.1973 20.0586 22.291 20.0234 22.4082 19.9531C22.5254 19.8594 22.6543 19.7422 22.7949 19.6016C22.9355 19.4375 23.1113 19.2031 23.3223 18.8984C23.5332 18.5938 23.7559 18.2422 23.9902 17.8438C24.3887 17.1406 24.752 16.3789 25.0801 15.5586C25.1035 15.5117 25.127 15.4648 25.1504 15.418C25.1973 15.3477 25.2441 15.3008 25.291 15.2773H25.3262L25.3613 15.2422L25.502 15.207H25.7129L28.5957 15.1719C28.8535 15.1484 29.0645 15.1602 29.2285 15.207C29.416 15.2539 29.5215 15.3125 29.5449 15.3828L29.6152 15.4883Z" fill="#E31E4C"/>
</svg>
